<svg width="12" height="12" viewBox="0 0 12 12" fill="none" xmlns="http://www.w3.org/2000/svg">
<g clip-path="url(#clip0_712_15431)">
<path d="M3.20002 6.00039L5.60002 8.00039L8.80002 4.00039M6.00002 11.6004C5.26462 11.6004 4.53642 11.4555 3.857 11.1741C3.17757 10.8927 2.56023 10.4802 2.04023 9.96019C1.52022 9.44018 1.10773 8.82284 0.826299 8.14342C0.544873 7.46399 0.400024 6.73579 0.400024 6.00039C0.400024 5.26499 0.544873 4.53679 0.826299 3.85736C1.10773 3.17794 1.52022 2.5606 2.04023 2.04059C2.56023 1.52058 3.17757 1.10809 3.857 0.826665C4.53642 0.545239 5.26462 0.400391 6.00002 0.400391C7.48524 0.400391 8.90962 0.990389 9.95982 2.04059C11.01 3.0908 11.6 4.51518 11.6 6.00039C11.6 7.4856 11.01 8.90998 9.95982 9.96019C8.90962 11.0104 7.48524 11.6004 6.00002 11.6004Z" stroke="#80888F"/>
</g>
<defs>
<clipPath id="clip0_712_15431">
<rect width="12" height="12" fill="white"/>
</clipPath>
</defs>
</svg>
