<svg width="12" height="9" viewBox="0 0 12 9" fill="none" xmlns="http://www.w3.org/2000/svg">
<path d="M11.866 7.73438L6.86662 0.421875C6.48387 -0.140625 5.51798 -0.140625 5.13265 0.421875L0.135599 7.73438C-0.249024 8.29487 0.230032 9 1.00094 9H10.9997C11.7676 9 12.2481 8.29688 11.866 7.73438ZM5.43688 2.73214C5.43688 2.46596 5.68885 2.25 5.9994 2.25C6.30996 2.25 6.56192 2.46696 6.56192 2.73214V5.30357C6.56192 5.56975 6.30996 5.78571 6.0205 5.78571C5.73103 5.78571 5.43688 5.57076 5.43688 5.30357V2.73214ZM5.9994 7.71429C5.59251 7.71429 5.2625 7.43143 5.2625 7.08268C5.2625 6.73393 5.59228 6.45107 5.9994 6.45107C6.40653 6.45107 6.73631 6.73393 6.73631 7.08268C6.73537 7.43103 6.40723 7.71429 5.9994 7.71429Z" fill="#D32F2F"/>
</svg>
