<svg width="22" height="16" viewBox="0 0 22 16" fill="none" xmlns="http://www.w3.org/2000/svg">
<path d="M0 16V12C0 11.5167 0.170833 11.1042 0.5125 10.7625C0.854167 10.4208 1.26667 10.25 1.75 10.25H5.275C5.55833 10.25 5.82917 10.3208 6.0875 10.4625C6.34583 10.6042 6.56667 10.8 6.75 11.05C7.23333 11.75 7.85 12.2917 8.6 12.675C9.35 13.0583 10.15 13.25 11 13.25C11.85 13.25 12.65 13.0583 13.4 12.675C14.15 12.2917 14.775 11.75 15.275 11.05C15.4583 10.8 15.675 10.6042 15.925 10.4625C16.175 10.3208 16.4417 10.25 16.725 10.25H20.25C20.7333 10.25 21.1458 10.4208 21.4875 10.7625C21.8292 11.1042 22 11.5167 22 12V16H15.5V13.025C14.9 13.575 14.2125 14 13.4375 14.3C12.6625 14.6 11.85 14.75 11 14.75C10.15 14.75 9.34167 14.6 8.575 14.3C7.80833 14 7.11667 13.575 6.5 13.025V16H0ZM11 11.75C10.4167 11.75 9.85417 11.6125 9.3125 11.3375C8.77083 11.0625 8.33333 10.6833 8 10.2C7.73333 9.81667 7.4125 9.50833 7.0375 9.275C6.6625 9.04167 6.25833 8.88333 5.825 8.8C6.30833 8.3 7.06667 7.91667 8.1 7.65C9.13333 7.38333 10.1 7.25 11 7.25C11.9 7.25 12.8708 7.38333 13.9125 7.65C14.9542 7.91667 15.7167 8.3 16.2 8.8C15.7667 8.88333 15.3625 9.04167 14.9875 9.275C14.6125 9.50833 14.2917 9.81667 14.025 10.2C13.6917 10.6833 13.2542 11.0625 12.7125 11.3375C12.1708 11.6125 11.6 11.75 11 11.75ZM3 8.5C2.25 8.5 1.60417 8.22917 1.0625 7.6875C0.520833 7.14583 0.25 6.5 0.25 5.75C0.25 4.98333 0.520833 4.33333 1.0625 3.8C1.60417 3.26667 2.25 3 3 3C3.76667 3 4.41667 3.26667 4.95 3.8C5.48333 4.33333 5.75 4.98333 5.75 5.75C5.75 6.5 5.48333 7.14583 4.95 7.6875C4.41667 8.22917 3.76667 8.5 3 8.5ZM19 8.5C18.25 8.5 17.6042 8.22917 17.0625 7.6875C16.5208 7.14583 16.25 6.5 16.25 5.75C16.25 4.98333 16.5208 4.33333 17.0625 3.8C17.6042 3.26667 18.25 3 19 3C19.7667 3 20.4167 3.26667 20.95 3.8C21.4833 4.33333 21.75 4.98333 21.75 5.75C21.75 6.5 21.4833 7.14583 20.95 7.6875C20.4167 8.22917 19.7667 8.5 19 8.5ZM11 5.5C10.25 5.5 9.60417 5.22917 9.0625 4.6875C8.52083 4.14583 8.25 3.5 8.25 2.75C8.25 1.98333 8.52083 1.33333 9.0625 0.8C9.60417 0.266667 10.25 0 11 0C11.7667 0 12.4167 0.266667 12.95 0.8C13.4833 1.33333 13.75 1.98333 13.75 2.75C13.75 3.5 13.4833 4.14583 12.95 4.6875C12.4167 5.22917 11.7667 5.5 11 5.5Z" fill="white"/>
</svg>
