<svg width="12" height="8" viewBox="0 0 12 8" fill="none" xmlns="http://www.w3.org/2000/svg">
<path d="M6.70001 6.71L11.29 2.12C11.3826 2.02742 11.456 1.9175 11.5061 1.79654C11.5562 1.67558 11.582 1.54593 11.582 1.415C11.582 1.28407 11.5562 1.15442 11.5061 1.03345C11.456 0.91249 11.3826 0.802579 11.29 0.709998C11.1974 0.617416 11.0875 0.543976 10.9666 0.493871C10.8456 0.443766 10.7159 0.417977 10.585 0.417977C10.4541 0.417977 10.3244 0.443766 10.2035 0.493871C10.0825 0.543976 9.97259 0.617416 9.88001 0.709998L5.99001 4.59L2.11001 0.709998C2.01743 0.617416 1.90752 0.543976 1.78655 0.493871C1.66559 0.443766 1.53594 0.417977 1.40501 0.417977C1.27408 0.417977 1.14443 0.443766 1.02347 0.493871C0.902505 0.543976 0.792593 0.617416 0.700011 0.709998C0.607429 0.802579 0.533991 0.91249 0.483885 1.03345C0.43378 1.15442 0.407992 1.28407 0.407992 1.415C0.407992 1.54593 0.43378 1.67558 0.483885 1.79654C0.533991 1.9175 0.607429 2.02742 0.700011 2.12L5.29001 6.71C5.38252 6.8027 5.49241 6.87625 5.61339 6.92643C5.73436 6.97661 5.86404 7.00244 5.99501 7.00244C6.12598 7.00244 6.25566 6.97661 6.37664 6.92643C6.49761 6.87625 6.6075 6.8027 6.70001 6.71Z" fill="#80888F"/>
</svg>
