<svg width="19" height="18" viewBox="0 0 19 18" fill="none" xmlns="http://www.w3.org/2000/svg">
<g clip-path="url(#clip0_712_12406)">
<path d="M6.77029 0.592441C4.97181 1.21635 3.42081 2.40055 2.34509 3.9711C1.26938 5.54165 0.725656 7.41577 0.79379 9.31817C0.861924 11.2206 1.53832 13.051 2.72364 14.5406C3.90895 16.0301 5.54069 17.1004 7.3792 17.594C8.86972 17.9786 10.4313 17.9955 11.9298 17.6432C13.2873 17.3383 14.5423 16.6861 15.572 15.7504C16.6437 14.7468 17.4216 13.4701 17.822 12.0576C18.2571 10.5215 18.3346 8.90611 18.0484 7.33541H9.67842V10.8074H14.5258C14.4289 11.3612 14.2213 11.8897 13.9154 12.3614C13.6095 12.8331 13.2116 13.2382 12.7455 13.5524C12.1536 13.9441 11.4863 14.2076 10.7865 14.3259C10.0847 14.4564 9.3649 14.4564 8.66311 14.3259C7.95176 14.179 7.27885 13.8854 6.68732 13.4638C5.73691 12.7911 5.02328 11.8353 4.64826 10.7329C4.26701 9.60985 4.26701 8.39237 4.64826 7.26932C4.91521 6.48212 5.3565 5.76538 5.9392 5.1726C6.60603 4.48177 7.45026 3.98797 8.37926 3.74536C9.30826 3.50275 10.2861 3.52072 11.2056 3.79728C11.9239 4.01768 12.5808 4.40293 13.1237 4.92228C13.6703 4.37853 14.2159 3.83338 14.7606 3.28682C15.0419 2.99291 15.3484 2.71307 15.6254 2.41213C14.7965 1.64083 13.8236 1.04062 12.7623 0.645878C10.8297 -0.055855 8.71511 -0.0747134 6.77029 0.592441Z" fill="white"/>
<path d="M6.77004 0.591171C8.71469 -0.0764365 10.8293 -0.0580745 12.7621 0.643202C13.8235 1.04062 14.796 1.64372 15.6238 2.41789C15.3425 2.71883 15.0458 3.00008 14.7589 3.29258C14.2133 3.83727 13.6682 4.38008 13.1235 4.92102C12.5805 4.40166 11.9237 4.01641 11.2054 3.79602C10.2862 3.51848 9.30835 3.49948 8.3791 3.74109C7.44985 3.9827 6.6051 4.4756 5.93754 5.1657C5.35484 5.75849 4.91354 6.47523 4.6466 7.26242L1.73145 5.00539C2.77489 2.93618 4.58156 1.35339 6.77004 0.591171Z" fill="#E33629"/>
<path d="M0.958551 7.2418C1.11512 6.46523 1.37526 5.71319 1.73199 5.00586L4.64714 7.26852C4.2659 8.39157 4.2659 9.60905 4.64714 10.7321C3.67589 11.4821 2.70418 12.2359 1.73199 12.9934C0.839231 11.2163 0.566956 9.19157 0.958551 7.2418Z" fill="#F8BD00"/>
<path d="M9.67836 7.33398H18.0484C18.3345 8.90468 18.2571 10.5201 17.822 12.0562C17.4215 13.4687 16.6436 14.7454 15.572 15.749C14.6312 15.0149 13.6862 14.2865 12.7454 13.5524C13.2118 13.2378 13.6099 12.8323 13.9158 12.3601C14.2217 11.8879 14.4292 11.3589 14.5257 10.8046H9.67836C9.67695 9.64867 9.67836 8.49133 9.67836 7.33398Z" fill="#4285F4"/>
<path d="M1.73047 12.9937C2.70266 12.2437 3.67437 11.4899 4.64562 10.7324C5.02139 11.8352 5.73604 12.791 6.6875 13.4634C7.28087 13.8829 7.95523 14.1741 8.6675 14.3184C9.3693 14.4489 10.0891 14.4489 10.7909 14.3184C11.4907 14.2001 12.158 13.9366 12.7498 13.5449C13.6906 14.279 14.6356 15.0074 15.5764 15.7415C14.5469 16.6777 13.2918 17.3304 11.9342 17.6357C10.4357 17.988 8.87411 17.9711 7.38359 17.5865C6.20474 17.2717 5.10361 16.7169 4.14922 15.9566C3.13915 15.1545 2.31411 14.1439 1.73047 12.9937Z" fill="#319F43"/>
</g>
<defs>
<clipPath id="clip0_712_12406">
<rect width="18" height="18" fill="white" transform="translate(0.5)"/>
</clipPath>
</defs>
</svg>
