<svg width="19" height="14" viewBox="0 0 19 14" fill="none" xmlns="http://www.w3.org/2000/svg">
<path d="M2.53333 13.3636V14H3.8V13.3636H2.53333ZM8.86667 13.3636V14H10.1333V13.3636H8.86667ZM3.8 13.3636V12.7273H2.53333V13.3636H3.8ZM8.86667 12.7273V13.3636H10.1333V12.7273H8.86667ZM6.33333 10.1818C7.00522 10.1818 7.64958 10.45 8.12467 10.9274C8.59976 11.4047 8.86667 12.0522 8.86667 12.7273H10.1333C10.1333 11.7146 9.73298 10.7435 9.02034 10.0274C8.3077 9.31136 7.34116 8.90909 6.33333 8.90909V10.1818ZM3.8 12.7273C3.8 12.0522 4.0669 11.4047 4.542 10.9274C5.01709 10.45 5.66145 10.1818 6.33333 10.1818V8.90909C5.32551 8.90909 4.35897 9.31136 3.64633 10.0274C2.93369 10.7435 2.53333 11.7146 2.53333 12.7273H3.8ZM6.33333 2.54545C5.66145 2.54545 5.01709 2.81364 4.542 3.291C4.0669 3.76837 3.8 4.41581 3.8 5.09091H5.06667C5.06667 4.75336 5.20012 4.42964 5.43766 4.19096C5.67521 3.95227 5.99739 3.81818 6.33333 3.81818V2.54545ZM8.86667 5.09091C8.86667 4.41581 8.59976 3.76837 8.12467 3.291C7.64958 2.81364 7.00522 2.54545 6.33333 2.54545V3.81818C6.66927 3.81818 6.99146 3.95227 7.229 4.19096C7.46655 4.42964 7.6 4.75336 7.6 5.09091H8.86667ZM6.33333 7.63636C7.00522 7.63636 7.64958 7.36818 8.12467 6.89082C8.59976 6.41345 8.86667 5.76601 8.86667 5.09091H7.6C7.6 5.42846 7.46655 5.75218 7.229 5.99086C6.99146 6.22955 6.66927 6.36364 6.33333 6.36364V7.63636ZM6.33333 6.36364C5.99739 6.36364 5.67521 6.22955 5.43766 5.99086C5.20012 5.75218 5.06667 5.42846 5.06667 5.09091H3.8C3.8 5.76601 4.0669 6.41345 4.542 6.89082C5.01709 7.36818 5.66145 7.63636 6.33333 7.63636V6.36364ZM1.9 1.27273H17.1V0H1.9V1.27273ZM17.7333 1.90909V12.0909H19V1.90909H17.7333ZM17.1 12.7273H1.9V14H17.1V12.7273ZM1.26667 12.0909V1.90909H0V12.0909H1.26667ZM1.9 12.7273C1.73203 12.7273 1.57094 12.6602 1.45217 12.5409C1.33339 12.4215 1.26667 12.2597 1.26667 12.0909H0C0 12.5972 0.200178 13.0828 0.556497 13.4408C0.912816 13.7989 1.39609 14 1.9 14V12.7273ZM17.7333 12.0909C17.7333 12.2597 17.6666 12.4215 17.5478 12.5409C17.4291 12.6602 17.268 12.7273 17.1 12.7273V14C17.6039 14 18.0872 13.7989 18.4435 13.4408C18.7998 13.0828 19 12.5972 19 12.0909H17.7333ZM17.1 1.27273C17.268 1.27273 17.4291 1.33977 17.5478 1.45911C17.6666 1.57846 17.7333 1.74032 17.7333 1.90909H19C19 1.40277 18.7998 0.917184 18.4435 0.55916C18.0872 0.201136 17.6039 0 17.1 0V1.27273ZM1.9 0C1.39609 0 0.912816 0.201136 0.556497 0.55916C0.200178 0.917184 0 1.40277 0 1.90909H1.26667C1.26667 1.74032 1.33339 1.57846 1.45217 1.45911C1.57094 1.33977 1.73203 1.27273 1.9 1.27273V0ZM11.4 5.09091H15.2V3.81818H11.4V5.09091ZM11.4 8.90909H15.2V7.63636H11.4V8.90909Z" fill="#585858"/>
</svg>
