<svg width="97" height="42" viewBox="0 0 97 42" fill="none" xmlns="http://www.w3.org/2000/svg">
<path d="M80.4817 42H0V14.033C0 6.28382 6.30997 0 14.0914 0H97V25.5502C97 34.6353 89.6046 42 80.4817 42Z" fill="#7CD4F2"/>
<path d="M13.3174 18.7266L6.54883 27.1532L13.5085 35.4428L13.3174 18.7266Z" fill="#60A3BA"/>
<path d="M28.6058 10.6406L10.9219 28.7157L24.975 33.9528L28.6058 10.6406Z" fill="#60A3BA"/>
<path d="M10.9223 32.835L19.1241 37.5621C19.4184 37.623 20.0452 37.6002 20.3089 37.4556L29.2025 36.5041C29.5006 36.3366 38.0311 27.3428 38.119 27.0117L38.6846 16.7467C38.8299 16.1796 38.5547 15.5859 38.0273 15.3271L29.8178 10.5809C29.2025 10.2802 28.4572 10.5276 28.1515 11.1404L23.2288 20.9867C22.9346 21.5766 22.2313 21.8316 21.6236 21.5766L14.5455 18.5813C13.8919 18.3034 13.1428 18.6269 12.8906 19.2854L10.0089 31.1832C9.73752 31.8987 10.1732 32.6828 10.9223 32.8388V32.835Z" fill="#F4DC4D"/>
<path d="M22.545 3.84375C12.8679 3.84375 5.02539 11.6576 5.02539 21.2908C5.02539 30.9239 12.8718 38.7378 22.545 38.7378C32.2183 38.7378 40.0646 30.9239 40.0646 21.2908C40.0646 11.6576 32.2221 3.84375 22.545 3.84375ZM22.545 36.5113C14.1062 36.5113 7.26121 29.6984 7.26121 21.2908C7.26121 12.8832 14.1062 6.07411 22.545 6.07411C30.9838 6.07411 37.8288 12.887 37.8288 21.2946C37.8288 29.7022 30.9876 36.5151 22.545 36.5151V36.5113Z" fill="#70C0D6"/>
<path d="M46.5196 6.72997V15.2251H46.0113V6.72997H42.8047V6.26562H49.73V6.72997H46.5196Z" fill="white"/>
<path d="M57.0919 15.2251V10.7301H51.4087V15.2251H50.9004V6.26562H51.4087V10.2658H57.0919V6.26562H57.6002V15.2251H57.0919Z" fill="white"/>
<path d="M59.6094 15.2251V6.26562H64.3906V6.72997H60.1177V10.2848H63.6415V10.7492H60.1177V14.7646H64.3906V15.2289H59.6094V15.2251Z" fill="white"/>
<path d="M59.1259 35.1516V24.8485C59.1259 24.4565 59.21 23.3642 59.2368 23.2538L58.6176 24.8485L54.0925 35.1516H51.9828L47.4576 24.8485C47.2895 24.4565 46.9226 23.4212 46.8691 23.2538C46.8691 23.3375 46.9532 24.4565 46.9532 24.8485V35.1516H43.9453V18.3516H47.5991L53.1676 30.6414L58.7055 18.3516H62.2484V35.1516H59.1259Z" fill="white"/>
<path d="M65.5926 35.3732C64.5263 35.3732 63.6816 34.532 63.6816 33.4701C63.6816 32.4082 64.5263 31.5938 65.5926 31.5938C66.6589 31.5938 67.5035 32.4349 67.5035 33.4701C67.5035 34.5054 66.6589 35.3732 65.5926 35.3732Z" fill="white"/>
<path d="M76.1643 35.6265C70.9894 35.6265 66.9688 31.9042 66.9688 26.7508C66.9688 21.5973 70.9894 17.875 76.1643 17.875C81.3391 17.875 85.2719 21.5973 85.2719 26.7508C85.2719 31.9042 81.3085 35.6265 76.1643 35.6265ZM76.1643 20.5925C72.7895 20.5925 70.569 23.1122 70.569 26.7508C70.569 30.3894 72.7895 32.909 76.1643 32.909C79.539 32.909 81.6754 30.3894 81.6754 26.7508C81.6754 23.1122 79.4817 20.5925 76.1643 20.5925Z" fill="white"/>
<path d="M86.3992 35.3732C85.3291 35.3732 84.4883 34.532 84.4883 33.4701C84.4883 32.4082 85.3329 31.5938 86.3992 31.5938C87.4655 31.5938 88.3102 32.4349 88.3102 33.4701C88.3102 34.5054 87.4655 35.3732 86.3992 35.3732Z" fill="white"/>
</svg>
