<svg width="30" height="30" viewBox="0 0 30 30" fill="none" xmlns="http://www.w3.org/2000/svg">
<circle cx="15" cy="15" r="15" fill="white"/>
<circle cx="15.3516" cy="14.6367" r="12.5" fill="#00A7E1"/>
<path d="M15.3541 19.376C16.4306 19.376 17.3458 18.9991 18.0996 18.2453C18.8535 17.4914 19.2301 16.5765 19.2295 15.5006C19.2295 14.4241 18.8526 13.509 18.0988 12.7551C17.3449 12.0013 16.4301 11.6247 15.3541 11.6252C14.2776 11.6252 13.3625 12.0022 12.6087 12.756C11.8548 13.5098 11.4782 14.4247 11.4788 15.5006C11.4788 16.5771 11.8557 17.4923 12.6095 18.2461C13.3633 19 14.2782 19.3766 15.3541 19.376ZM15.3541 17.6536C14.7513 17.6536 14.2418 17.4455 13.8255 17.0292C13.4093 16.613 13.2012 16.1035 13.2012 15.5006C13.2012 14.8978 13.4093 14.3882 13.8255 13.972C14.2418 13.5558 14.7513 13.3476 15.3541 13.3476C15.957 13.3476 16.4665 13.5558 16.8828 13.972C17.299 14.3882 17.5071 14.8978 17.5071 15.5006C17.5071 16.1035 17.299 16.613 16.8828 17.0292C16.4665 17.4455 15.957 17.6536 15.3541 17.6536ZM8.46458 22.3902C7.99092 22.3902 7.5853 22.2214 7.24771 21.8838C6.91012 21.5462 6.74161 21.1409 6.74219 20.6678V10.3335C6.74219 9.8598 6.91098 9.45417 7.24857 9.11658C7.58616 8.779 7.9915 8.61049 8.46458 8.61106H11.1773L12.2538 7.44845C12.4117 7.27621 12.6021 7.13985 12.8248 7.03938C13.0476 6.93891 13.2804 6.88867 13.5232 6.88867H17.1833C17.4273 6.88867 17.6607 6.93891 17.8835 7.03938C18.1062 7.13985 18.2963 7.27621 18.4536 7.44845L19.5309 8.61106H22.2437C22.7174 8.61106 23.123 8.77986 23.4606 9.11745C23.7982 9.45503 23.9667 9.86037 23.9661 10.3335V20.6678C23.9661 21.1415 23.7973 21.5471 23.4597 21.8847C23.1221 22.2223 22.7168 22.3908 22.2437 22.3902H8.46458ZM8.46458 20.6678H22.2437V10.3335H18.7559L17.1842 8.61106H13.5241L11.9524 10.3335H8.46458V20.6678Z" fill="white"/>
</svg>
