<svg width="36" height="36" viewBox="0 0 36 36" fill="none" xmlns="http://www.w3.org/2000/svg">
<rect width="36" height="36" fill="#585858"/>
<path d="M26.5887 24.5972L22.3805 20.3894C23.3374 18.9689 23.8096 17.194 23.5568 15.3028C23.1258 12.086 20.4891 9.46822 17.2687 9.06056C12.4808 8.45477 8.45468 12.4804 9.06057 17.2679C9.46838 20.4892 12.0868 23.1278 15.3043 23.5566C17.1958 23.8093 18.9712 23.3374 20.3915 22.3804L24.5997 26.5882C25.1488 27.1373 26.0393 27.1373 26.5885 26.5882C27.1371 26.0384 27.1371 25.1455 26.5887 24.5972ZM11.7808 16.3117C11.7808 13.8306 13.7995 11.8122 16.2808 11.8122C18.7622 11.8122 20.7809 13.8306 20.7809 16.3117C20.7809 18.7928 18.7622 20.8112 16.2808 20.8112C13.7995 20.8112 11.7808 18.7935 11.7808 16.3117Z" fill="white"/>
</svg>
