<svg width="154" height="154" viewBox="0 0 154 154" fill="none" xmlns="http://www.w3.org/2000/svg">
<path d="M154 77C154 93.3654 148.786 109.305 139.114 122.507C129.442 135.708 115.816 145.485 100.211 150.418L96.7297 139.405C109.993 135.212 121.576 126.902 129.797 115.681C138.018 104.459 142.45 90.9106 142.45 77H154Z" fill="#60A3BA"/>
<path d="M100.955 3.82102C116.409 8.8798 129.864 18.7011 139.393 31.8773C148.922 45.0535 154.035 60.9081 154 77.1689L142.45 77.1436C142.48 63.3219 138.134 49.8455 130.034 38.6457C121.935 27.4459 110.497 19.0978 97.3617 14.7979L100.955 3.82102Z" fill="#319F43"/>
<path d="M14.3189 32.2778C23.8465 18.9242 37.3897 8.96242 52.9747 3.8441C68.5598 -1.27422 85.3722 -1.28153 100.962 3.82324L97.3674 14.7997C84.1163 10.4607 69.8258 10.4669 56.5785 14.8175C43.3312 19.1681 31.8195 27.6356 23.7211 38.9861L14.3189 32.2778Z" fill="#A875FF"/>
<path d="M2.94936 98.1069C-0.250437 86.8809 -0.855982 75.0743 1.17851 63.5798C3.213 52.0853 7.83427 41.2039 14.6929 31.7581L24.039 38.5444C18.2091 46.5733 14.281 55.8225 12.5517 65.5928C10.8224 75.3632 11.3371 85.3988 14.0569 94.9409L2.94936 98.1069Z" fill="#FF540D"/>
<path d="M43.2919 146.23C33.5824 141.502 24.9759 134.785 18.0315 126.515C11.087 118.244 5.95985 108.606 2.98306 98.2248L14.0856 95.0411C16.6159 103.865 20.9739 112.058 26.8767 119.088C32.7795 126.117 40.095 131.827 48.3481 135.845L43.2919 146.23Z" fill="#2F2F2F"/>
<path d="M100.278 150.397C90.6391 153.454 80.4928 154.583 70.418 153.718C60.3432 152.854 50.5374 150.014 41.5603 145.36L46.8762 135.106C54.5067 139.062 62.8417 141.476 71.4053 142.21C79.9689 142.945 88.5933 141.986 96.7861 139.388L100.278 150.397Z" fill="#FF9900"/>
</svg>
