<svg width="21" height="24" viewBox="0 0 21 24" fill="none" xmlns="http://www.w3.org/2000/svg">
<path fill-rule="evenodd" clip-rule="evenodd" d="M20.66 3.81818C20.66 9.24061 16.147 13.6364 10.58 13.6364C5.01297 13.6364 0.5 9.24061 0.5 3.81818C0.5 1.70946 2.25505 0 4.42 0C6.58495 0 8.34 1.70946 8.34 3.81818V11.1383C9.79264 11.5594 11.3674 11.5594 12.82 11.1383V3.81818C12.82 1.70946 14.575 0 16.74 0C18.905 0 20.66 1.70946 20.66 3.81818ZM4.42 2.18182C5.34784 2.18182 6.1 2.91445 6.1 3.81818V10.0858C4.0689 8.70586 2.74 6.41318 2.74 3.81818C2.74 2.91445 3.49216 2.18182 4.42 2.18182ZM15.06 3.81818V10.0858C17.0911 8.70586 18.42 6.41318 18.42 3.81818C18.42 2.91445 17.6679 2.18182 16.74 2.18182C15.8122 2.18182 15.06 2.91445 15.06 3.81818Z" fill="#00B7FD"/>
<path d="M15.06 20.1811V14.9994C12.2047 16.0857 8.95299 16.0849 6.1 14.9994V20.1811C6.1 21.0848 5.34784 21.8175 4.42 21.8175C3.49216 21.8175 2.74 21.0848 2.74 20.1811V13.0746C1.89007 12.3908 1.1359 11.5983 0.5 10.7188V20.1811C0.5 22.2898 2.25505 23.9993 4.42 23.9993C6.58495 23.9993 8.34 22.2898 8.34 20.1811V17.8325C9.82134 18.0552 11.3387 18.0552 12.82 17.8325V20.1811C12.82 22.2898 14.575 23.9993 16.74 23.9993C18.905 23.9993 20.66 22.2898 20.66 20.1811V10.7188C20.0241 11.5983 19.2699 12.3908 18.42 13.0746V20.1811C18.42 21.0848 17.6679 21.8175 16.74 21.8175C15.8122 21.8175 15.06 21.0848 15.06 20.1811Z" fill="#00B7FD"/>
</svg>
