<svg width="19" height="18" viewBox="0 0 19 18" fill="none" xmlns="http://www.w3.org/2000/svg">
<path d="M17.25 16.25H17.75V15.75V5.25V4.75H17.25L2.25 4.75L2.24927 4.75C2.05093 4.75029 1.854 4.71657 1.66706 4.6503L1 4.41383V5.12156V15C1 15.3315 1.1317 15.6495 1.36612 15.8839C1.60054 16.1183 1.91848 16.25 2.25 16.25H17.25ZM2.25 4.25H17.25C17.5152 4.25 17.7696 4.35536 17.9571 4.54289C18.1446 4.73043 18.25 4.98478 18.25 5.25V15.75C18.25 16.0152 18.1446 16.2696 17.9571 16.4571C17.7696 16.6446 17.5152 16.75 17.25 16.75H2.25C1.78587 16.75 1.34075 16.5656 1.01256 16.2374C0.684375 15.9092 0.5 15.4641 0.5 15V3C0.5 2.53587 0.684375 2.09075 1.01256 1.76256C1.34075 1.43437 1.78587 1.25 2.25 1.25H15C15.0663 1.25 15.1299 1.27634 15.1768 1.32322C15.2237 1.37011 15.25 1.43369 15.25 1.5C15.25 1.56631 15.2237 1.62989 15.1768 1.67678C15.1299 1.72366 15.0663 1.75 15 1.75H2.25C1.91848 1.75 1.60054 1.8817 1.36612 2.11612C1.1317 2.35054 1 2.66848 1 3C1 3.33152 1.1317 3.64946 1.36612 3.88388C1.60054 4.1183 1.91848 4.25 2.25 4.25ZM13.25 10.125C13.25 10.0014 13.2867 9.88055 13.3553 9.77777C13.424 9.67499 13.5216 9.59488 13.6358 9.54758C13.75 9.50027 13.8757 9.48789 13.9969 9.51201C14.1182 9.53612 14.2295 9.59565 14.3169 9.68306L14.6705 9.32951L14.3169 9.68306C14.4044 9.77047 14.4639 9.88183 14.488 10.0031C14.5121 10.1243 14.4997 10.25 14.4524 10.3642C14.4051 10.4784 14.325 10.576 14.2222 10.6447C14.1194 10.7133 13.9986 10.75 13.875 10.75C13.7092 10.75 13.5503 10.6842 13.4331 10.5669C13.3158 10.4497 13.25 10.2908 13.25 10.125Z" fill="white" stroke="white"/>
</svg>
