<svg width="22" height="18" viewBox="0 0 22 18" fill="none" xmlns="http://www.w3.org/2000/svg">
<path d="M0.500001 1.875C0.500001 0.84 1.34 0 2.3735 0H3.1235C4.1585 0 4.9955 0.84 4.9955 1.875V16.1175C4.9955 17.1525 4.157 17.9925 3.1235 17.9925H2.3735C2.12727 17.9923 1.88349 17.9436 1.65608 17.8492C1.42867 17.7548 1.22209 17.6165 1.04811 17.4423C0.874144 17.268 0.736198 17.0612 0.642152 16.8336C0.548107 16.6061 0.499804 16.3622 0.500001 16.116V1.875ZM2.3735 1.5C2.27404 1.5 2.17866 1.53951 2.10834 1.60983C2.03801 1.68016 1.9985 1.77554 1.9985 1.875V16.1175C1.9985 16.3245 2.1665 16.4925 2.3735 16.4925H3.1235C3.22296 16.4925 3.31834 16.453 3.38867 16.3827C3.45899 16.3123 3.4985 16.217 3.4985 16.1175V1.8735C3.4985 1.77404 3.45899 1.67866 3.38867 1.60833C3.31834 1.53801 3.22296 1.4985 3.1235 1.4985L2.3735 1.5ZM6.4955 1.875C6.4955 0.84 7.334 0 8.369 0H9.119C10.1525 0 10.991 0.84 10.991 1.875V16.1175C10.991 17.1525 10.151 17.9925 9.1175 17.9925H8.3675C7.87074 17.9917 7.3946 17.7938 7.04361 17.4423C6.69263 17.0907 6.4955 16.6143 6.4955 16.1175V1.875ZM8.369 1.5C8.26954 1.5 8.17416 1.53951 8.10384 1.60983C8.03351 1.68016 7.994 1.77554 7.994 1.875V16.1175C7.994 16.3245 8.162 16.4925 8.369 16.4925H9.119C9.2182 16.4921 9.31319 16.4524 9.3832 16.3821C9.4532 16.3119 9.4925 16.2167 9.4925 16.1175V1.8735C9.4925 1.77404 9.45299 1.67866 9.38267 1.60833C9.31234 1.53801 9.21696 1.4985 9.1175 1.4985H8.3675L8.369 1.5ZM16.958 4.1655C16.7782 3.7187 16.4332 3.35831 15.9947 3.15916C15.5561 2.96001 15.0578 2.93739 14.603 3.096L13.7285 3.402C13.4896 3.48586 13.2702 3.61724 13.0835 3.7882C12.8967 3.95916 12.7465 4.16617 12.642 4.39675C12.5374 4.62732 12.4806 4.87669 12.475 5.1298C12.4695 5.38292 12.5152 5.63454 12.6095 5.8695L17.015 16.8255C17.3885 17.7555 18.425 18.225 19.3715 17.895L20.2445 17.589C20.4836 17.5051 20.7032 17.3737 20.89 17.2027C21.0769 17.0316 21.2271 16.8244 21.3317 16.5937C21.4363 16.3629 21.493 16.1134 21.4985 15.8601C21.504 15.6068 21.458 15.355 21.3635 15.12L16.958 4.1655ZM15.098 4.5105C15.1888 4.47933 15.2882 4.48421 15.3755 4.52412C15.4629 4.56402 15.5316 4.63593 15.5675 4.725L19.973 15.6795C19.9921 15.7266 20.0015 15.777 20.0005 15.8278C19.9995 15.8786 19.9882 15.9286 19.9673 15.9749C19.9464 16.0212 19.9163 16.0627 19.8789 16.0971C19.8415 16.1314 19.7974 16.1577 19.7495 16.1745L18.8765 16.479C18.7857 16.5107 18.6861 16.5063 18.5984 16.4666C18.5108 16.427 18.4417 16.3551 18.4055 16.266L14 5.31C13.9811 5.26303 13.972 5.21272 13.9731 5.16211C13.9742 5.1115 13.9855 5.06164 14.0064 5.01553C14.0273 4.96942 14.0573 4.92801 14.0946 4.89381C14.1319 4.8596 14.1758 4.8333 14.2235 4.8165L15.0965 4.5105H15.098Z" fill="#585858"/>
</svg>
