<svg width="22" height="22" viewBox="0 0 22 22" fill="none" xmlns="http://www.w3.org/2000/svg">
<path d="M20.7136 7.70968C21.9636 6.45968 21.3936 4.99968 20.7136 4.28968L17.7136 1.28968C16.4536 0.0396849 15.0036 0.609685 14.2936 1.28968L12.5936 2.99968H10.0036C8.10359 2.99968 7.00359 3.99968 6.44359 5.14968L2.00359 9.58969V13.5897L1.29359 14.2897C0.0435911 15.5497 0.613591 16.9997 1.29359 17.7097L4.29359 20.7097C4.83359 21.2497 5.41359 21.4497 5.96359 21.4497C6.67359 21.4497 7.32359 21.0997 7.71359 20.7097L10.4136 17.9997H14.0036C15.7036 17.9997 16.5636 16.9397 16.8736 15.8997C18.0036 15.5997 18.6236 14.7397 18.8736 13.8997C20.4236 13.4997 21.0036 12.0297 21.0036 10.9997V7.99968H20.4136L20.7136 7.70968ZM19.0036 10.9997C19.0036 11.4497 18.8136 11.9997 18.0036 11.9997H17.0036V12.9997C17.0036 13.4497 16.8136 13.9997 16.0036 13.9997H15.0036V14.9997C15.0036 15.4497 14.8136 15.9997 14.0036 15.9997H9.59359L6.31359 19.2797C6.00359 19.5697 5.82359 19.3997 5.71359 19.2897L2.72359 16.3097C2.43359 15.9997 2.60359 15.8197 2.71359 15.7097L4.00359 14.4097V10.4097L6.00359 8.40968V9.99969C6.00359 11.2097 6.80359 12.9997 9.00359 12.9997C11.2036 12.9997 12.0036 11.2097 12.0036 9.99969H19.0036V10.9997ZM19.2936 6.28968L17.5936 7.99968H10.0036V9.99969C10.0036 10.4497 9.81359 10.9997 9.00359 10.9997C8.19359 10.9997 8.00359 10.4497 8.00359 9.99969V6.99968C8.00359 6.53968 8.17359 4.99968 10.0036 4.99968H13.4136L15.6936 2.71968C16.0036 2.42968 16.1836 2.59968 16.2936 2.70968L19.2836 5.68968C19.5736 5.99968 19.4036 6.17968 19.2936 6.28968Z" fill="#585858"/>
</svg>
